<?xml version="1.0" encoding="UTF-8" standalone="no"?>
<!DOCTYPE svg PUBLIC "-//W3C//DTD SVG 1.1//EN" "http://www.w3.org/Graphics/SVG/1.1/DTD/svg11.dtd">
<svg width="100%" height="100%" viewBox="0 0 36 36" version="1.1" xmlns="http://www.w3.org/2000/svg" xmlns:xlink="http://www.w3.org/1999/xlink" xml:space="preserve" xmlns:serif="http://www.serif.com/" style="fill-rule:evenodd;clip-rule:evenodd;stroke-linejoin:round;stroke-miterlimit:2;">
    <g transform="matrix(1,0,0,1,0.1,2.05)">
        <g transform="matrix(1,0,0,1,-0.1,-2.05)">
            <path d="M23.43,8.909C23.43,8.629 23.525,8.394 23.715,8.204C23.905,8.014 24.15,7.919 24.45,7.919C24.29,7.039 23.92,6.309 23.34,5.729C22.76,5.149 22.075,4.729 21.285,4.469C20.495,4.209 19.68,4.109 18.84,4.169C18,4.229 17.215,4.439 16.485,4.799C15.755,5.159 15.16,5.684 14.7,6.374C14.24,7.064 14.01,7.909 14.01,8.909C14.01,10.049 14.28,10.984 14.82,11.714C15.36,12.444 16.07,13.059 16.95,13.559C17.83,14.059 18.8,14.504 19.86,14.894C20.92,15.284 21.98,15.704 23.04,16.154C24.1,16.604 25.07,17.144 25.95,17.774C26.83,18.404 27.54,19.199 28.08,20.159C28.62,21.119 28.89,22.329 28.89,23.789C28.89,25.629 28.43,27.239 27.51,28.619C26.59,29.999 25.3,31.074 23.64,31.844C21.98,32.614 20.05,32.999 17.85,32.999C16.51,32.999 15.2,32.809 13.92,32.429C12.64,32.049 11.49,31.474 10.47,30.704C9.45,29.934 8.635,28.979 8.025,27.839C7.415,26.699 7.11,25.369 7.11,23.849C7.11,22.569 7.385,21.449 7.935,20.489C8.485,19.529 9.255,18.784 10.245,18.254C11.235,17.724 12.38,17.459 13.68,17.459C13.94,17.459 14.115,17.534 14.205,17.684C14.295,17.834 14.295,17.984 14.205,18.134C14.115,18.284 13.94,18.359 13.68,18.359C12.9,18.359 12.17,18.589 11.49,19.049C10.81,19.509 10.26,20.149 9.84,20.969C9.42,21.789 9.21,22.749 9.21,23.849C9.21,25.229 9.455,26.434 9.945,27.464C10.435,28.494 11.095,29.354 11.925,30.044C12.755,30.734 13.68,31.249 14.7,31.589C15.72,31.929 16.77,32.099 17.85,32.099C19.55,32.099 21.035,31.799 22.305,31.199C23.575,30.599 24.565,29.759 25.275,28.679C25.985,27.599 26.34,26.349 26.34,24.929C26.34,23.609 26.07,22.514 25.53,21.644C24.99,20.774 24.27,20.044 23.37,19.454C22.47,18.864 21.485,18.349 20.415,17.909C19.345,17.469 18.275,17.024 17.205,16.574C16.135,16.124 15.15,15.594 14.25,14.984C13.35,14.374 12.63,13.619 12.09,12.719C11.55,11.819 11.28,10.679 11.28,9.299C11.28,8.099 11.535,7.074 12.045,6.224C12.555,5.374 13.23,4.694 14.07,4.184C14.91,3.674 15.835,3.329 16.845,3.149C17.855,2.969 18.865,2.954 19.875,3.104C20.885,3.254 21.81,3.569 22.65,4.049C23.49,4.529 24.165,5.174 24.675,5.984C25.185,6.794 25.44,7.769 25.44,8.909C25.44,9.209 25.345,9.454 25.155,9.644C24.965,9.834 24.72,9.929 24.42,9.929C24.14,9.929 23.905,9.834 23.715,9.644C23.525,9.454 23.43,9.209 23.43,8.909Z" style="fill:none;"/>
            <path d="M11.859,15.614C11.282,15.058 10.788,14.436 10.375,13.748C9.671,12.574 9.28,11.098 9.28,9.299C9.28,7.694 9.648,6.331 10.33,5.195C11.01,4.061 11.912,3.154 13.032,2.474C14.08,1.838 15.234,1.404 16.494,1.18C17.719,0.961 18.944,0.943 20.169,1.125C21.433,1.313 22.59,1.711 23.642,2.312C24.773,2.958 25.681,3.828 26.367,4.918C27.065,6.025 27.44,7.351 27.44,8.909C27.44,9.791 27.128,10.499 26.569,11.058C26.01,11.617 25.302,11.929 24.42,11.929C23.576,11.929 22.873,11.63 22.301,11.058C21.742,10.499 21.43,9.791 21.43,8.909C21.43,8.249 21.612,7.676 21.965,7.183C21.952,7.17 21.939,7.156 21.926,7.143C21.569,6.786 21.146,6.528 20.66,6.368C20.118,6.19 19.559,6.122 18.982,6.164C18.407,6.205 17.869,6.346 17.37,6.592C16.958,6.796 16.624,7.094 16.364,7.483C16.107,7.869 16.01,8.35 16.01,8.909C16.01,9.56 16.119,10.107 16.428,10.524C16.809,11.04 17.317,11.467 17.938,11.82C18.728,12.269 19.599,12.667 20.551,13.017C21.641,13.418 22.731,13.85 23.822,14.313C25.021,14.822 26.118,15.434 27.114,16.147C28.233,16.948 29.137,17.958 29.823,19.178C30.51,20.4 30.89,21.931 30.89,23.789C30.89,26.053 30.306,28.03 29.174,29.728C28.056,31.405 26.499,32.722 24.482,33.658C22.579,34.54 20.371,34.999 17.85,34.999C16.316,34.999 14.816,34.781 13.351,34.346C11.834,33.896 10.473,33.212 9.265,32.3C8.012,31.354 7.011,30.182 6.262,28.782C5.507,27.371 5.11,25.73 5.11,23.849C5.11,22.188 5.486,20.74 6.2,19.494C6.938,18.205 7.971,17.202 9.301,16.49C10.08,16.074 10.932,15.779 11.859,15.614ZM23.43,8.909C23.43,9.209 23.525,9.454 23.715,9.644C23.905,9.834 24.14,9.929 24.42,9.929C24.72,9.929 24.965,9.834 25.155,9.644C25.345,9.454 25.44,9.209 25.44,8.909C25.44,7.769 25.185,6.794 24.675,5.984C24.165,5.174 23.49,4.529 22.65,4.049C21.81,3.569 20.885,3.254 19.875,3.104C18.865,2.954 17.855,2.969 16.845,3.149C15.835,3.329 14.91,3.674 14.07,4.184C13.23,4.694 12.555,5.374 12.045,6.224C11.535,7.074 11.28,8.099 11.28,9.299C11.28,10.679 11.55,11.819 12.09,12.719C12.63,13.619 13.35,14.374 14.25,14.984C15.15,15.594 16.135,16.124 17.205,16.574C18.275,17.024 19.345,17.469 20.415,17.909C21.485,18.349 22.47,18.864 23.37,19.454C24.27,20.044 24.99,20.774 25.53,21.644C26.07,22.514 26.34,23.609 26.34,24.929C26.34,26.349 25.985,27.599 25.275,28.679C24.565,29.759 23.575,30.599 22.305,31.199C21.035,31.799 19.55,32.099 17.85,32.099C16.77,32.099 15.72,31.929 14.7,31.589C13.68,31.249 12.755,30.734 11.925,30.044C11.095,29.354 10.435,28.494 9.945,27.464C9.455,26.434 9.21,25.229 9.21,23.849C9.21,22.749 9.42,21.789 9.84,20.969C10.26,20.149 10.81,19.509 11.49,19.049C12.17,18.589 12.9,18.359 13.68,18.359C13.94,18.359 14.115,18.284 14.205,18.134C14.295,17.984 14.295,17.834 14.205,17.684C14.115,17.534 13.94,17.459 13.68,17.459C12.38,17.459 11.235,17.724 10.245,18.254C9.255,18.784 8.485,19.529 7.935,20.489C7.385,21.449 7.11,22.569 7.11,23.849C7.11,25.369 7.415,26.699 8.025,27.839C8.635,28.979 9.45,29.934 10.47,30.704C11.49,31.474 12.64,32.049 13.92,32.429C15.2,32.809 16.51,32.999 17.85,32.999C20.05,32.999 21.98,32.614 23.64,31.844C25.3,31.074 26.59,29.999 27.51,28.619C28.43,27.239 28.89,25.629 28.89,23.789C28.89,22.329 28.62,21.119 28.08,20.159C27.54,19.199 26.83,18.404 25.95,17.774C25.07,17.144 24.1,16.604 23.04,16.154C21.98,15.704 20.92,15.284 19.86,14.894C18.8,14.504 17.83,14.059 16.95,13.559C16.07,13.059 15.36,12.444 14.82,11.714C14.28,10.984 14.01,10.049 14.01,8.909C14.01,7.909 14.24,7.064 14.7,6.374C15.16,5.684 15.755,5.159 16.485,4.799C17.215,4.439 18,4.229 18.84,4.169C19.68,4.109 20.495,4.209 21.285,4.469C22.075,4.729 22.76,5.149 23.34,5.729C23.92,6.309 24.29,7.039 24.45,7.919C24.15,7.919 23.905,8.014 23.715,8.204C23.525,8.394 23.43,8.629 23.43,8.909ZM16.251,18.341C16.195,18.615 16.084,18.889 15.92,19.163C15.52,19.829 14.836,20.359 13.68,20.359C13.298,20.359 12.944,20.48 12.611,20.705C12.198,20.984 11.875,21.383 11.62,21.88C11.334,22.44 11.21,23.098 11.21,23.849C11.21,24.899 11.378,25.82 11.751,26.604C12.112,27.362 12.593,27.998 13.204,28.506C13.84,29.035 14.55,29.43 15.332,29.691C16.148,29.963 16.987,30.099 17.85,30.099C19.223,30.099 20.425,29.875 21.451,29.39C22.368,28.957 23.091,28.36 23.604,27.58C24.105,26.818 24.34,25.931 24.34,24.929C24.34,24.036 24.196,23.287 23.831,22.698C23.442,22.073 22.921,21.551 22.273,21.126C21.476,20.603 20.603,20.148 19.654,19.758C18.579,19.316 17.505,18.869 16.43,18.417C16.37,18.392 16.311,18.367 16.251,18.341Z" style="fill:white;fill-opacity:0.5;"/>
        </g>
        <g transform="matrix(1,0,0,1,-0.1,-2.05)">
            <path d="M23.43,8.909C23.43,8.629 23.525,8.394 23.715,8.204C23.905,8.014 24.15,7.919 24.45,7.919C24.29,7.039 23.92,6.309 23.34,5.729C22.76,5.149 22.075,4.729 21.285,4.469C20.495,4.209 19.68,4.109 18.84,4.169C18,4.229 17.215,4.439 16.485,4.799C15.755,5.159 15.16,5.684 14.7,6.374C14.24,7.064 14.01,7.909 14.01,8.909C14.01,10.049 14.28,10.984 14.82,11.714C15.36,12.444 16.07,13.059 16.95,13.559C17.83,14.059 18.8,14.504 19.86,14.894C20.92,15.284 21.98,15.704 23.04,16.154C24.1,16.604 25.07,17.144 25.95,17.774C26.83,18.404 27.54,19.199 28.08,20.159C28.62,21.119 28.89,22.329 28.89,23.789C28.89,25.629 28.43,27.239 27.51,28.619C26.59,29.999 25.3,31.074 23.64,31.844C21.98,32.614 20.05,32.999 17.85,32.999C16.51,32.999 15.2,32.809 13.92,32.429C12.64,32.049 11.49,31.474 10.47,30.704C9.45,29.934 8.635,28.979 8.025,27.839C7.415,26.699 7.11,25.369 7.11,23.849C7.11,22.569 7.385,21.449 7.935,20.489C8.485,19.529 9.255,18.784 10.245,18.254C11.235,17.724 12.38,17.459 13.68,17.459C13.94,17.459 14.115,17.534 14.205,17.684C14.295,17.834 14.295,17.984 14.205,18.134C14.115,18.284 13.94,18.359 13.68,18.359C12.9,18.359 12.17,18.589 11.49,19.049C10.81,19.509 10.26,20.149 9.84,20.969C9.42,21.789 9.21,22.749 9.21,23.849C9.21,25.229 9.455,26.434 9.945,27.464C10.435,28.494 11.095,29.354 11.925,30.044C12.755,30.734 13.68,31.249 14.7,31.589C15.72,31.929 16.77,32.099 17.85,32.099C19.55,32.099 21.035,31.799 22.305,31.199C23.575,30.599 24.565,29.759 25.275,28.679C25.985,27.599 26.34,26.349 26.34,24.929C26.34,23.609 26.07,22.514 25.53,21.644C24.99,20.774 24.27,20.044 23.37,19.454C22.47,18.864 21.485,18.349 20.415,17.909C19.345,17.469 18.275,17.024 17.205,16.574C16.135,16.124 15.15,15.594 14.25,14.984C13.35,14.374 12.63,13.619 12.09,12.719C11.55,11.819 11.28,10.679 11.28,9.299C11.28,8.099 11.535,7.074 12.045,6.224C12.555,5.374 13.23,4.694 14.07,4.184C14.91,3.674 15.835,3.329 16.845,3.149C17.855,2.969 18.865,2.954 19.875,3.104C20.885,3.254 21.81,3.569 22.65,4.049C23.49,4.529 24.165,5.174 24.675,5.984C25.185,6.794 25.44,7.769 25.44,8.909C25.44,9.209 25.345,9.454 25.155,9.644C24.965,9.834 24.72,9.929 24.42,9.929C24.14,9.929 23.905,9.834 23.715,9.644C23.525,9.454 23.43,9.209 23.43,8.909Z" style="fill:rgb(149,0,255);stroke:rgb(149,0,255);stroke-width:2px;"/>
        </g>
    </g>
</svg>
